<svg width="503" height="247" viewBox="0 0 503 247" fill="none" xmlns="http://www.w3.org/2000/svg">
<path d="M303.004 154.864C300.796 154.864 298.804 154.36 297.028 153.352C295.3 152.296 294.028 150.664 293.212 148.456L278.164 103.6H289.612L301.78 144.208C301.876 144.544 302.02 144.784 302.212 144.928C302.452 145.072 302.716 145.144 303.004 145.144C303.292 145.144 303.532 145.072 303.724 144.928C303.964 144.784 304.132 144.544 304.228 144.208L316.828 103.6H327.772L312.796 148.384C312.028 150.544 310.756 152.176 308.98 153.28C307.204 154.336 305.212 154.864 303.004 154.864ZM332.485 154V117.28H342.421V154H332.485ZM337.453 112.888C335.773 112.888 334.309 112.288 333.061 111.088C331.861 109.84 331.261 108.376 331.261 106.696C331.261 105.016 331.861 103.576 333.061 102.376C334.309 101.128 335.773 100.504 337.453 100.504C339.133 100.504 340.573 101.128 341.773 102.376C343.021 103.576 343.645 105.016 343.645 106.696C343.645 108.376 343.021 109.84 341.773 111.088C340.573 112.288 339.133 112.888 337.453 112.888ZM370.688 154.864C366.752 154.864 363.32 154.048 360.392 152.416C357.512 150.784 355.28 148.48 353.696 145.504C352.112 142.48 351.32 138.952 351.32 134.92V101.44H361.184V121.816H361.256C362.024 120.712 362.96 119.752 364.064 118.936C365.216 118.12 366.488 117.496 367.88 117.064C369.32 116.632 370.808 116.416 372.344 116.416C375.944 116.416 379.064 117.208 381.704 118.792C384.344 120.376 386.384 122.56 387.824 125.344C389.312 128.08 390.056 131.272 390.056 134.92C390.056 137.8 389.624 140.464 388.76 142.912C387.896 145.312 386.648 147.424 385.016 149.248C383.384 151.024 381.368 152.416 378.968 153.424C376.568 154.384 373.808 154.864 370.688 154.864ZM370.688 146.44C372.656 146.44 374.336 145.96 375.728 145C377.12 144.04 378.176 142.744 378.896 141.112C379.664 139.48 380.048 137.656 380.048 135.64C380.048 133.624 379.664 131.8 378.896 130.168C378.176 128.536 377.12 127.24 375.728 126.28C374.336 125.32 372.656 124.84 370.688 124.84C368.768 124.84 367.088 125.32 365.648 126.28C364.256 127.24 363.176 128.536 362.408 130.168C361.688 131.8 361.328 133.624 361.328 135.64C361.328 137.656 361.688 139.48 362.408 141.112C363.176 142.744 364.256 144.04 365.648 145C367.088 145.96 368.768 146.44 370.688 146.44ZM415.747 154C411.571 154 407.923 153.208 404.803 151.624C401.731 149.992 399.331 147.784 397.603 145C395.923 142.216 395.083 139.096 395.083 135.64C395.083 131.752 395.875 128.368 397.459 125.488C399.043 122.608 401.203 120.376 403.939 118.792C406.675 117.208 409.771 116.416 413.227 116.416C417.355 116.416 420.691 117.28 423.235 119.008C425.827 120.736 427.723 123.064 428.922 125.992C430.123 128.872 430.723 132.088 430.723 135.64C430.723 136.12 430.699 136.696 430.651 137.368C430.603 137.992 430.531 138.472 430.435 138.808H405.595C405.979 140.296 406.627 141.544 407.539 142.552C408.499 143.56 409.675 144.328 411.066 144.856C412.507 145.336 414.115 145.576 415.891 145.576H426.115V154H415.747ZM405.523 132.184H420.859C420.763 131.272 420.595 130.432 420.355 129.664C420.115 128.848 419.779 128.128 419.347 127.504C418.915 126.88 418.411 126.352 417.835 125.92C417.259 125.488 416.587 125.152 415.819 124.912C415.051 124.672 414.211 124.552 413.299 124.552C412.099 124.552 411.019 124.768 410.059 125.2C409.147 125.632 408.379 126.208 407.755 126.928C407.131 127.648 406.627 128.464 406.243 129.376C405.907 130.288 405.667 131.224 405.523 132.184ZM444.224 154C442.592 154 441.128 153.592 439.832 152.776C438.536 151.96 437.48 150.88 436.664 149.536C435.896 148.144 435.512 146.608 435.512 144.928C435.512 143.392 435.896 141.976 436.664 140.68C437.48 139.384 438.512 138.304 439.76 137.44L454.808 127.288C455 127.192 455.12 127.072 455.168 126.928C455.216 126.784 455.24 126.664 455.24 126.568C455.24 126.328 455.144 126.136 454.952 125.992C454.808 125.8 454.616 125.704 454.376 125.704H437.312V117.28H457.256C458.888 117.28 460.352 117.688 461.648 118.504C462.944 119.32 463.976 120.424 464.744 121.816C465.56 123.16 465.968 124.672 465.968 126.352C465.968 127.888 465.56 129.304 464.744 130.6C463.976 131.896 462.968 132.976 461.72 133.84L446.672 143.992C446.528 144.088 446.408 144.208 446.312 144.352C446.264 144.496 446.24 144.616 446.24 144.712C446.24 144.952 446.312 145.168 446.456 145.36C446.648 145.504 446.864 145.576 447.104 145.576H465.176V154H444.224ZM480.646 154C479.014 154 477.55 153.592 476.254 152.776C474.958 151.96 473.902 150.88 473.086 149.536C472.318 148.144 471.934 146.608 471.934 144.928C471.934 143.392 472.318 141.976 473.086 140.68C473.902 139.384 474.934 138.304 476.182 137.44L491.23 127.288C491.422 127.192 491.542 127.072 491.59 126.928C491.638 126.784 491.662 126.664 491.662 126.568C491.662 126.328 491.566 126.136 491.374 125.992C491.23 125.8 491.038 125.704 490.798 125.704H473.734V117.28H493.678C495.31 117.28 496.774 117.688 498.07 118.504C499.366 119.32 500.398 120.424 501.166 121.816C501.982 123.16 502.39 124.672 502.39 126.352C502.39 127.888 501.982 129.304 501.166 130.6C500.398 131.896 499.39 132.976 498.142 133.84L483.094 143.992C482.95 144.088 482.83 144.208 482.734 144.352C482.686 144.496 482.662 144.616 482.662 144.712C482.662 144.952 482.734 145.168 482.878 145.36C483.07 145.504 483.286 145.576 483.526 145.576H501.598V154H480.646Z" fill="#178804"/>
<circle cx="123.258" cy="123.258" r="113.258" stroke="white" stroke-width="20"/>
<path d="M106.018 143.009C106.018 149.089 101.089 154.018 95.0088 154.018C88.9288 154.018 84 149.089 84 143.009C84 136.929 88.9288 132 95.0088 132C101.089 132 106.018 136.929 106.018 143.009Z" stroke="#178804" stroke-width="6"/>
<path d="M181 129C181 135.526 176.553 140 172 140C167.447 140 163 135.526 163 129C163 122.474 167.447 118 172 118C176.553 118 181 122.474 181 129Z" stroke="#178804" stroke-width="6"/>
<path d="M181.493 129.435V69.4563C181.493 68.8 181.224 68.1724 180.749 67.72V67.72C180.191 67.1888 179.411 66.9582 178.654 67.1001L108.612 80.233C107.936 80.3598 107.337 80.7478 106.945 81.3131V81.3131C106.641 81.7509 106.478 82.2709 106.478 82.8037L106.478 142.991" stroke="#178804" stroke-width="5"/>
<path d="M106.492 100.287L109.946 93.2789C111.293 90.545 115.347 91.1102 115.895 94.1083L116.134 95.4159C116.697 98.4961 120.914 98.9736 122.151 96.0972L123.25 93.543C124.379 90.9199 128.131 91.0167 129.122 93.6945L130.812 98.2556C131.743 100.769 135.182 101.058 136.519 98.7354L144.018 85.7107C145.043 83.931 147.466 83.5843 148.949 85.0052L159.669 95.2794C161.059 96.6109 163.305 96.4037 164.428 94.8404L168.628 88.9899" stroke="#178804" stroke-width="2.71138"/>
<path d="M84.5754 126.045V116.641C84.5754 116.2 84.2572 115.824 83.8224 115.75L70.7754 113.542C70.285 113.459 69.9538 112.996 70.0343 112.505L71.854 101.404C71.9749 100.667 71.2003 100.11 70.54 100.459L60.1731 105.936M73.7299 144.799L54.6482 129.665C54.3128 129.399 53.8368 129.405 53.508 129.679L44.5826 137.117M84.5754 160.841L70.6664 170.043C70.2409 170.324 69.6669 170.198 69.3989 169.764L65.8202 163.97C65.4911 163.437 64.733 163.392 64.3435 163.883L59.0433 170.557L54.0725 176.206" stroke="#178804" stroke-width="1.80758"/>
</svg>
